<svg xmlns="http://www.w3.org/2000/svg" viewBox="0 0 512 512" role="img" aria-label="OpsPilot AI logo">
  <defs>
    <linearGradient id="g" x1="70" y1="54" x2="442" y2="458" gradientUnits="userSpaceOnUse">
      <stop stop-color="#2F6BFF"/>
      <stop offset="0.54" stop-color="#1D4ED8"/>
      <stop offset="1" stop-color="#14B8A6"/>
    </linearGradient>
    <filter id="s" x="-20%" y="-20%" width="140%" height="140%">
      <feDropShadow dx="0" dy="18" stdDeviation="18" flood-color="#0F172A" flood-opacity="0.28"/>
    </filter>
  </defs>
  <rect x="48" y="48" width="416" height="416" rx="112" fill="url(#g)" filter="url(#s)"/>
  <path d="M158 257c0-59 42-101 101-101 52 0 92 32 101 79h-54c-7-20-24-32-48-32-31 0-51 22-51 54s20 54 51 54c24 0 42-12 49-33h54c-10 48-50 80-103 80-58 0-100-42-100-101Z" fill="#fff" opacity="0.96"/>
  <path d="M153 166h44v181h-44V166Z" fill="#DFF7FF" opacity="0.95"/>
  <path d="M321 138l19 39 43 6-31 31 7 43-38-20-39 20 8-43-31-31 43-6 19-39Z" fill="#fff" opacity="0.94"/>
  <circle cx="256" cy="256" r="166" fill="none" stroke="#fff" stroke-width="14" stroke-opacity="0.16"/>
</svg>
